solid OpenSCAD_Model
  facet normal -0 0 1
    outer loop
      vertex 0 0.508 0.2288
      vertex 0.508 0 0.2288
      vertex 0.508 0.508 0.2288
    endloop
  endfacet
  facet normal 0 0 1
    outer loop
      vertex 0.508 0 0.2288
      vertex 0 0.508 0.2288
      vertex 0 0 0.2288
    endloop
  endfacet
  facet normal 0 0 -1
    outer loop
      vertex 0 0 0
      vertex 0.508 0.508 0
      vertex 0.508 0 0
    endloop
  endfacet
  facet normal -0 0 -1
    outer loop
      vertex 0.508 0.508 0
      vertex 0 0 0
      vertex 0 0.508 0
    endloop
  endfacet
  facet normal 0 -1 0
    outer loop
      vertex 0 0 0
      vertex 0.508 0 0.2288
      vertex 0 0 0.2288
    endloop
  endfacet
  facet normal 0 -1 -0
    outer loop
      vertex 0.508 0 0.2288
      vertex 0 0 0
      vertex 0.508 0 0
    endloop
  endfacet
  facet normal 1 -0 0
    outer loop
      vertex 0.508 0 0.2288
      vertex 0.508 0.508 0
      vertex 0.508 0.508 0.2288
    endloop
  endfacet
  facet normal 1 0 0
    outer loop
      vertex 0.508 0.508 0
      vertex 0.508 0 0.2288
      vertex 0.508 0 0
    endloop
  endfacet
  facet normal 0 1 -0
    outer loop
      vertex 0.508 0.508 0
      vertex 0 0.508 0.2288
      vertex 0.508 0.508 0.2288
    endloop
  endfacet
  facet normal 0 1 0
    outer loop
      vertex 0 0.508 0.2288
      vertex 0.508 0.508 0
      vertex 0 0.508 0
    endloop
  endfacet
  facet normal -1 0 0
    outer loop
      vertex 0 0 0
      vertex 0 0.508 0.2288
      vertex 0 0.508 0
    endloop
  endfacet
  facet normal -1 -0 0
    outer loop
      vertex 0 0.508 0.2288
      vertex 0 0 0
      vertex 0 0 0.2288
    endloop
  endfacet
endsolid OpenSCAD_Model
